#!OML:ASF E:\motion texture\Top Level 1\Subject 1\Session 1\male.ASF
:FULLY-SPECIFIED
:DEGREES
481
root -15.5954 17.3264 5.255 161.318 -86.3166 -154.105
lowerback -1.22997 -3.00095 2.40677
upperback -0.332997 -4.12164 3.90613
thorax 0.466944 -2.09147 2.59338
lowerneck -20.2256 -2.1258 -1.5986
upperneck 9.16434 -3.94318 9.50157
head 6.3198 -1.21693 2.8865
rclavicle -8.74653e-015 3.65764e-014
rhumerus 26.499 -29.6919 3.28774
rradius 48.2353
rwrist -0.52569
rhand -12.1372 -24.3022
rfingers 7.12502
rthumb 13.9247 -53.816
lclavicle -8.74653e-015 3.65764e-014
lhumerus -37.4132 -1.19593 85.0611
lradius 33.719
lwrist -20.8001
lhand -12.4587 21.3088
lfingers 7.12502
lthumb 13.615 50.8435
rfemur -40.8843 1.95014 16.9276
rtibia 25.7374
rfoot -2.30676 -8.79855
rtoes 3.57357
lfemur 5.48138 -6.36161 -21.9254
ltibia 22.8397
lfoot -19.9255 1.83236
ltoes -14.7837
482
root -15.785 17.3111 5.2356 159.645 -86.2211 -152.371
lowerback -1.22462 -2.98464 2.64381
upperback -0.370038 -4.10546 3.99121
thorax 0.4153 -2.08516 2.55133
lowerneck -20.2705 -2.05436 -1.52404
upperneck 9.20308 -3.84397 9.34402
head 6.32765 -1.17586 2.83491
rclavicle -2.43511e-014 3.18055e-014
rhumerus 27.5166 -31.5288 2.41806
rradius 46.4577
rwrist 0.542394
rhand -12.756 -24.7615
rfingers 7.12502
rthumb 13.3284 -54.3152
lclavicle -2.43511e-014 3.18055e-014
lhumerus -37.3223 -0.58493 84.7629
lradius 33.4913
lwrist -20.9709
lhand -12.7096 21.3979
lfingers 7.12502
lthumb 13.3731 50.9488
rfemur -40.943 2.35466 17.0511
rtibia 26.0569
rfoot -2.06196 -8.37366
rtoes 3.84655
lfemur 5.47768 -6.2463 -21.7194
ltibia 23.7488
lfoot -19.558 1.58398
ltoes -15.4571
483
root -15.9755 17.2981 5.21505 157.747 -86.1212 -150.421
lowerback -1.21712 -2.96222 2.88587
upperback -0.408241 -4.08102 4.07719
thorax 0.360872 -2.07497 2.50777
lowerneck -20.313 -1.98812 -1.45947
upperneck 9.24567 -3.74943 9.18803
head 6.33708 -1.13722 2.78497
rclavicle 3.03147e-014 -4.13472e-014
rhumerus 28.5563 -33.3391 1.39631
rradius 44.8826
rwrist 1.66543
rhand -13.3559 -25.1669
rfingers 7.12502
rthumb 12.7501 -54.7576
lclavicle 3.03147e-014 -4.13472e-014
lhumerus -37.2363 0.0350746 84.4807
lradius 33.2714
lwrist -21.1442
lhand -12.9513 21.4742
lfingers 7.12502
lthumb 13.1401 51.0402
rfemur -40.9656 2.73861 17.2211
rtibia 26.4445
rfoot -1.84295 -7.94863
rtoes 4.17702
lfemur 5.42705 -6.11884 -21.4754
ltibia 24.7255
lfoot -19.1156 1.31811
ltoes -16.0918
484
root -16.167 17.2875 5.19341 155.661 -86.0164 -148.293
lowerback -1.20823 -2.93407 3.13198
upperback -0.447229 -4.04885 4.16308
thorax 0.304538 -2.06115 2.46217
lowerneck -20.3535 -1.92659 -1.40577
upperneck 9.29148 -3.65898 9.0361
head 6.34796 -1.1006 2.73766
rclavicle 1.88845e-015 4.77083e-014
rhumerus 29.6063 -35.1042 0.240709
rradius 43.5196
rwrist 2.82165
rhand -13.9367 -25.5212
rfingers 7.12502
rthumb 12.1902 -55.146
lclavicle 1.88845e-015 4.77083e-014
lhumerus -37.1554 0.658928 84.2155
lradius 33.0613
lwrist -21.3198
lhand -13.1872 21.5315
lfingers 7.12502
lthumb 12.9127 51.112
rfemur -40.9498 3.10046 17.4358
rtibia 26.8889
rfoot -1.65112 -7.52741
rtoes 4.5593
lfemur 5.32762 -5.97817 -21.1948
ltibia 25.7683
lfoot -18.5969 1.04098
ltoes -16.682
485
root -16.3593 17.2793 5.17069 153.409 -85.9056 -146.008
lowerback -1.19799 -2.90036 3.381
upperback -0.486895 -4.00912 4.24877
thorax 0.246576 -2.04379 2.415
lowerneck -20.3914 -1.87018 -1.3631
upperneck 9.34013 -3.57304 8.88807
head 6.36006 -1.06626 2.69293
rclavicle -3.8763e-015 0
rhumerus 30.6476 -36.8009 -1.02147
rradius 42.3776
rwrist 3.98388
rhand -14.4963 -25.8243
rfingers 7.12502
rthumb 11.6505 -55.4804
lclavicle -3.8763e-015 0
lhumerus -37.0788 1.28096 83.9694
lradius 32.8621
lwrist -21.4957
lhand -13.4148 21.5707
lfingers 7.12502
lthumb 12.6934 51.165
rfemur -40.8928 3.44034 17.6942
rtibia 27.3803
rfoot -1.48977 -7.11584
rtoes 4.98826
lfemur 5.17839 -5.82399 -20.8774
ltibia 26.8738
lfoot -18.0018 0.755801
ltoes -17.2041
486
root -16.5523 17.2738 5.14692 151.032 -85.7886 -143.606
lowerback -1.18754 -2.86179 3.63036
upperback -0.527006 -3.96277 4.33389
thorax 0.188088 -2.02336 2.36721
lowerneck -20.4246 -1.81869 -1.33178
upperneck 9.38972 -3.491 8.74352
head 6.37237 -1.03405 2.65073
rclavicle 2.51463e-014 -1.51076e-014
rhumerus 31.6565 -38.4053 -2.35703
rradius 41.4615
rwrist 5.12018
rhand -15.0349 -26.0842
rfingers 7.12502
rthumb 11.1311 -55.7689
lclavicle 2.51463e-014 -1.51076e-014
lhumerus -37.0096 1.89621 83.7442
lradius 32.6794
lwrist -21.6703
lhand -13.6354 21.5913
lfingers 7.12502
lthumb 12.4806 51.1986
rfemur -40.7921 3.75801 17.9933
rtibia 27.9062
rfoot -1.35706 -6.71916
rtoes 5.44686
lfemur 4.97841 -5.65589 -20.5252
ltibia 28.0393
lfoot -17.3341 0.465691
ltoes -17.6585
